<mxfile host="app.diagrams.net" modified="2023-08-18T04:43:02.552Z" agent="Mozilla/5.0 (Windows NT 10.0; Win64; x64) AppleWebKit/537.36 (KHTML, like Gecko) Chrome/115.0.0.0 Safari/537.36 Edg/115.0.1901.203" version="21.6.8" etag="yhHyNlI0e0RPLdmCqf66" type="github">
  <diagram name="Страница — 1" id="onCmJPCFugNSugm5969p">
    <mxGraphModel>
      <root>
        <mxCell id="0" />
        <mxCell id="1" parent="0" />
      </root>
    </mxGraphModel>
  </diagram>
</mxfile>
